<?xml version="1.0" encoding="utf-8" standalone="no"?>
<!DOCTYPE svg PUBLIC "-//W3C//DTD SVG 1.1//EN" "http://www.w3.org/Graphics/SVG/1.1/DTD/svg11.dtd">
<svg width="424" height="520" viewBox="0 0 424 520" version="1.1" xmlns="http://www.w3.org/2000/svg" xmlns:xlink="http://www.w3.org/1999/xlink" xml:space="preserve" xmlns:serif="http://www.serif.com/" style="fill-rule:evenodd;clip-rule:evenodd;stroke-linecap:round;stroke-linejoin:round;stroke-miterlimit:1.5;">
    <g id="Ebene1" transform="matrix(17.4044,6.68948,-6.68948,17.4044,76.3348,-378.768)">
        <g transform="matrix(0.60311,0.000735042,-0.000735042,0.60311,5.36671,13.9417)">
            <path d="M25.149,1.196C19.207,16.11 12.818,20.316 10.799,29.204C8.295,40.224 19.407,47.471 25.149,47.376" style="fill:rgb(255,0,0);stroke:rgb(0,51,93);stroke-width:1.07px;"/>
        </g>
        <g transform="matrix(-0.60311,-0.000735042,-0.000735042,0.60311,35.7017,13.9786)">
            <path d="M25.149,1.196C19.207,16.11 12.818,20.316 10.799,29.204C8.295,40.224 19.407,47.47 25.149,47.375" style="fill:rgb(255,0,0);stroke:rgb(0,51,93);stroke-width:1.07px;"/>
        </g>
        <g transform="matrix(0.562959,-0.216377,0.216377,0.562959,1.06108,20.7962)">
            <path d="M38.621,8.687C38.621,8.687 36.316,9.892 33.863,11.598C32.779,12.353 31.764,13.207 30.837,14.084C30.048,15.136 30.261,16.632 31.313,17.421C32.365,18.211 33.861,17.998 34.65,16.946C35.271,15.74 36.041,14.522 36.863,13.44C38.332,11.507 39.663,10.084 39.663,10.084C40.048,9.797 40.128,9.25 39.84,8.865C39.553,8.48 39.007,8.4 38.621,8.687Z" style="fill:rgb(0,51,93);"/>
        </g>
        <g transform="matrix(0.562959,-0.216377,0.216377,0.562959,1.06108,20.7962)">
            <path d="M31.614,10.4C32.08,15.664 33.388,22.459 33.388,22.459" style="fill:rgb(255,0,0);"/>
            <path d="M29.514,10.586L31.047,22.91C31.296,24.202 32.547,25.048 33.839,24.8C35.131,24.551 35.977,23.3 35.729,22.008L33.715,10.215C33.612,9.056 32.588,8.198 31.429,8.3C30.269,8.403 29.412,9.427 29.514,10.586Z" style="fill:rgb(255,0,0);"/>
        </g>
        <g transform="matrix(0.956899,-0.290419,0.290419,0.956899,-9.45136,6.4104)">
            <path d="M13.993,31.738C18.7,33.445 20.467,39.112 20.467,39.112C20.467,39.112 22.008,27.506 29.836,20.76" style="fill:white;fill-opacity:0;"/>
            <path d="M13.907,31.975C15.504,32.689 16.666,33.885 17.539,35.103C19.04,37.197 19.586,39.387 19.586,39.387C19.715,39.8 20.114,40.069 20.546,40.032C20.977,39.995 21.326,39.663 21.383,39.233C21.383,39.233 21.901,36.746 23.041,33.369C23.626,31.64 24.326,29.668 25.311,27.681C26.475,25.332 27.933,22.949 29.97,20.916C30.056,20.841 30.066,20.711 29.991,20.625C29.917,20.539 29.787,20.53 29.701,20.604C26.655,22.879 24.363,25.812 22.776,28.724C21.832,30.456 21.139,32.17 20.662,33.685C20.367,34.621 20.149,35.479 19.988,36.22C19.588,35.607 19.094,34.947 18.499,34.314C17.378,33.12 15.92,32.02 14.079,31.5C13.948,31.453 13.803,31.521 13.756,31.652C13.708,31.783 13.776,31.928 13.907,31.975Z" style="fill:white;"/>
        </g>
        <g transform="matrix(0.562959,-0.216377,0.216377,0.562959,1.06108,20.7962)">
            <path d="M18.668,34.91C21.797,41.821 21.139,41.894 24.394,34.577C24.49,34.36 25.932,42.228 25.932,42.228L17.154,42.835C17.154,42.835 18.321,34.143 18.668,34.91Z" style="fill:rgb(255,0,0);stroke:rgb(0,51,93);stroke-opacity:0;stroke-width:0.54px;"/>
        </g>
    </g>
</svg>
